<?xml version="1.0" encoding="iso-8859-1"?>
<!-- Generator: Adobe Illustrator 19.0.0, SVG Export Plug-In . SVG Version: 6.00 Build 0)  -->
<svg version="1.1" id="Capa_1" xmlns="http://www.w3.org/2000/svg" xmlns:xlink="http://www.w3.org/1999/xlink" x="0px" y="0px"
	 viewBox="0 0 512.012 512.012" style="enable-background:new 0 0 512.012 512.012;" xml:space="preserve">
<g>
	<g>
		<path d="M493.174,108.592l2.453-2.475c10.581-10.56,16.384-24.597,16.384-39.552c0-30.827-25.088-55.893-55.936-55.893
			c-14.933,0-28.971,5.824-39.531,16.384l-29.419,29.419l-4.992,4.992L210.252,75.803L76.406,53.488
			C70.668,52.4,65.164,56.39,64.161,62.15l-64,362.667c-0.491,2.795,0.149,5.675,1.792,8c1.643,2.325,4.139,3.904,6.955,4.373
			l95.744,15.957l2.048,38.101c0.171,2.923,1.515,5.653,3.755,7.552c1.941,1.643,4.373,2.539,6.891,2.539
			c0.405,0,0.789-0.021,1.173-0.064l164.907-18.325l109.483,18.24c0.597,0.107,1.195,0.149,1.771,0.149
			c5.099,0,9.6-3.648,10.475-8.832l4.16-23.552l93.205-10.368c5.632-0.619,9.792-5.547,9.472-11.2L493.174,108.592z M394.678,79.11
			l48.896,48.896L293.665,277.915c-3.477-8.789-9.259-19.264-19.477-29.461c-10.176-10.176-20.629-15.979-29.419-19.435
			L394.678,79.11z M275.702,290.736l-58.368,14.613l14.613-58.368c6.891,2.005,17.088,6.443,27.179,16.555
			C269.238,273.648,273.697,283.867,275.702,290.736z M358.774,84.827l-13.461,13.461l-49.408-8.213L358.774,84.827z
			 M127.393,478.832l-1.195-22.101l79.979,13.333L127.393,478.832z M385.996,478.385L23.03,417.905L83.318,76.251l243.456,40.576
			L216.46,227.142c-0.128,0.128-0.149,0.341-0.256,0.469c-0.981,1.088-1.685,2.347-2.133,3.797c-0.085,0.256-0.32,0.427-0.384,0.683
			l-21.333,85.333c-0.917,3.648,0.149,7.488,2.795,10.133c2.005,2.005,4.736,3.115,7.531,3.115c0.875,0,1.728-0.107,2.581-0.341
			l85.333-21.333c0.256-0.064,0.427-0.299,0.661-0.384c1.344-0.448,2.56-1.131,3.605-2.027c0.192-0.171,0.491-0.192,0.683-0.384
			l146.731-146.731L385.996,478.385z M413.174,447.067l55.381-313.899l4.373-4.373l17.195,309.717L413.174,447.067z M480.545,91.035
			l-21.888,21.888l-48.896-48.896l21.888-21.909c6.528-6.549,15.211-10.133,24.469-10.133c19.051,0,34.56,15.509,34.56,34.603
			C490.678,75.824,487.073,84.507,480.545,91.035z"/>
	</g>
</g>
<g>
</g>
<g>
</g>
<g>
</g>
<g>
</g>
<g>
</g>
<g>
</g>
<g>
</g>
<g>
</g>
<g>
</g>
<g>
</g>
<g>
</g>
<g>
</g>
<g>
</g>
<g>
</g>
<g>
</g>
</svg>
