<?xml version="1.0" encoding="iso-8859-1"?>
<!-- Generator: Adobe Illustrator 19.0.0, SVG Export Plug-In . SVG Version: 6.00 Build 0)  -->
<svg version="1.1" id="Capa_1" xmlns="http://www.w3.org/2000/svg" xmlns:xlink="http://www.w3.org/1999/xlink" x="0px" y="0px"
	 viewBox="0 0 512 512" style="enable-background:new 0 0 512 512;" xml:space="preserve">
<g>
	<g>
		<path d="M256,0C114.848,0,0,114.848,0,256s114.848,256,256,256s256-114.848,256-256S397.152,0,256,0z M256,480
			c-57.664,0-110.144-22.08-149.888-58.016c3.072-1.152,6.112-2.4,9.344-3.072l70.016-14.048
			C207.808,400.448,224,380.672,224,357.76v-32c0-8.448-6.56-15.424-14.976-15.968c-38.944-2.496-58.08-7.424-64.928-10.592
			c1.92-47.584,30.016-147.84,29.952-147.84C186.656,116.704,225.12,97.28,255.68,96c14.048,0.256,25.92,3.424,38.368,10.176
			c6.56,3.584,14.144,4.864,20.864,6.016c3.808,0.64,10.176,1.728,11.584,2.656c4.48,4.8,7.904,10.24,8.192,32.512
			c0.032,1.472,0.256,2.912,0.672,4.32c0.32,1.056,29.856,101.472,32.448,146.432c-7.232,2.944-26.272,7.904-64.96,10.688
			c-8.384,0.64-14.848,7.616-14.848,16v32.96c0,22.88,16.192,42.656,38.432,47.04l69.952,14.048c3.328,0.704,6.4,1.952,9.504,3.104
			C366.144,457.92,313.664,480,256,480z M429.28,397.76c-8.192-4.48-16.896-8.224-26.432-10.24l-70.144-14.08
			C325.344,372,320,365.376,320,357.76v-18.24c69.92-6.656,80-20.96,80-35.52c0-43.04-28.608-142.976-33.312-159.232
			c-0.608-25.12-5.184-39.232-16.672-51.616c-8.128-8.8-20.096-10.848-29.728-12.48c-3.776-0.672-8.992-1.536-10.912-2.592
			c-17.056-9.216-33.92-13.696-54.048-14.08c-42.144,1.728-93.952,28.544-111.712,77.568C142.336,146.144,112,254.368,112,304
			c0,20.704,23.392,31.616,80,36.608v17.184c0,7.616-5.344,14.208-12.736,15.68l-70.24,14.112
			c-9.408,1.984-18.08,5.728-26.272,10.208C51.072,359.104,32,309.76,32,256C32,132.48,132.512,32,256,32s224,100.48,224,224
			C480,309.76,460.928,359.104,429.28,397.76z"/>
	</g>
</g>
<g>
</g>
<g>
</g>
<g>
</g>
<g>
</g>
<g>
</g>
<g>
</g>
<g>
</g>
<g>
</g>
<g>
</g>
<g>
</g>
<g>
</g>
<g>
</g>
<g>
</g>
<g>
</g>
<g>
</g>
</svg>
