<?xml version="1.0" encoding="UTF-8" standalone="no"?>
<svg
   xmlns:dc="http://purl.org/dc/elements/1.1/"
   xmlns:cc="http://creativecommons.org/ns#"
   xmlns:rdf="http://www.w3.org/1999/02/22-rdf-syntax-ns#"
   xmlns:svg="http://www.w3.org/2000/svg"
   xmlns="http://www.w3.org/2000/svg"
   xmlns:sodipodi="http://sodipodi.sourceforge.net/DTD/sodipodi-0.dtd"
   xmlns:inkscape="http://www.inkscape.org/namespaces/inkscape"
   enable-background="new 0 0 24 24"
   height="512"
   viewBox="0 0 24 24"
   width="512"
   version="1.1"
   id="svg3725"
   sodipodi:docname="GitHub.svg"
   inkscape:version="0.92.4 (5da689c313, 2019-01-14)">
  <metadata
     id="metadata3731">
    <rdf:RDF>
      <cc:Work
         rdf:about="">
        <dc:format>image/svg+xml</dc:format>
        <dc:type
           rdf:resource="http://purl.org/dc/dcmitype/StillImage" />
      </cc:Work>
    </rdf:RDF>
  </metadata>
  <defs
     id="defs3729" />
  <sodipodi:namedview
     pagecolor="#ffffff"
     bordercolor="#666666"
     borderopacity="1"
     objecttolerance="10"
     gridtolerance="10"
     guidetolerance="10"
     inkscape:pageopacity="0"
     inkscape:pageshadow="2"
     inkscape:window-width="2736"
     inkscape:window-height="1699"
     id="namedview3727"
     showgrid="false"
     inkscape:zoom="1.9224466"
     inkscape:cx="260.64784"
     inkscape:cy="249.95445"
     inkscape:window-x="-13"
     inkscape:window-y="-13"
     inkscape:window-maximized="1"
     inkscape:current-layer="svg3725" />
  <path
     d="m12 .5c-6.63 0-12 5.28-12 11.792 0 5.211 3.438 9.63 8.205 11.188.6.111.82-.254.82-.567 0-.28-.01-1.022-.015-2.005-3.338.711-4.042-1.582-4.042-1.582-.546-1.361-1.335-1.725-1.335-1.725-1.087-.731.084-.716.084-.716 1.205.082 1.838 1.215 1.838 1.215 1.07 1.803 2.809 1.282 3.495.981.108-.763.417-1.282.76-1.577-2.665-.295-5.466-1.309-5.466-5.827 0-1.287.465-2.339 1.235-3.164-.135-.298-.54-1.497.105-3.121 0 0 1.005-.316 3.3 1.209.96-.262 1.98-.392 3-.398 1.02.006 2.04.136 3 .398 2.28-1.525 3.285-1.209 3.285-1.209.645 1.624.24 2.823.12 3.121.765.825 1.23 1.877 1.23 3.164 0 4.53-2.805 5.527-5.475 5.817.42.354.81 1.077.81 2.182 0 1.578-.015 2.846-.015 3.229 0 .309.21.678.825.56 4.801-1.548 8.236-5.97 8.236-11.173 0-6.512-5.373-11.792-12-11.792z"
     fill="#212121"
     id="path3723" />
  <path
     style="fill:#ffffff;stroke-width:0.52017051"
     d="M 169.46195,498.7532 C 120.12496,480.82746 79.707607,450.95573 49.017297,409.73475 -10.497195,329.79924 -15.93526,220.71629 35.333226,135.24397 74.040084,70.713796 138.55867,26.945222 213.41636,14.434683 c 15.63308,-2.612667 22.92472,-3.15508 42.3939,-3.153609 23.53752,0.0018 36.75281,1.377625 57.24837,5.960137 50.3817,11.264622 98.01065,38.633901 132.01969,75.863173 37.02541,40.531246 58.9574,88.131016 65.08214,141.249986 1.77086,15.35847 1.88858,38.53411 0.27173,53.49822 -7.5694,70.05565 -43.22276,131.94391 -100.63867,174.69185 -19.7102,14.67486 -41.86975,26.47556 -66.333,35.32453 -8.70972,3.15052 -12.91507,3.6203 -17.2917,1.93161 -2.88435,-1.11291 -5.67768,-4.11235 -6.55416,-7.03779 -0.43533,-1.453 -0.60369,-13.11773 -0.60369,-41.82598 0,-37.44305 -0.0619,-40.17321 -1.04091,-45.89971 -1.25001,-7.31182 -3.48914,-14.24365 -6.27033,-19.41153 -2.08597,-3.87608 -5.71361,-8.91297 -7.71033,-10.70562 -0.60704,-0.545 -1.10371,-1.15847 -1.10371,-1.36326 0,-0.20478 1.69705,-0.53646 3.77123,-0.73706 6.23219,-0.60273 18.66479,-2.8298 26.2698,-4.70574 26.17015,-6.45547 46.52999,-17.95946 59.84898,-33.81666 15.65975,-18.64406 23.57978,-41.30467 25.63419,-73.34404 1.96851,-30.6997 -4.70237,-53.49692 -21.90664,-74.86427 l -3.73698,-4.64125 1.33862,-4.46173 c 5.11366,-17.0443 4.43811,-36.54177 -1.92979,-55.69618 l -2.16085,-6.49979 -2.60086,-0.38326 c -3.76728,-0.55514 -11.62761,0.36919 -18.76135,2.20622 -12.94091,3.33245 -28.04153,10.46163 -44.24074,20.88657 l -4.74299,3.05233 -6.18059,-1.50595 c -20.47855,-4.98977 -41.5859,-7.20977 -63.39934,-6.66812 -18.45391,0.45823 -34.3517,2.44154 -50.91124,6.35138 l -7.34786,1.73489 -2.60085,-1.60924 c -19.96697,-12.35426 -33.65095,-18.86093 -46.77152,-22.23964 -10.29746,-2.65173 -20.51319,-3.17488 -21.58762,-1.10553 -0.88497,1.70446 -3.16256,8.85164 -4.41932,13.86806 -4.11065,16.40775 -3.73197,35.14541 0.98556,48.76805 l 1.2262,3.54086 -2.39,2.69102 c -10.93626,12.31364 -18.736537,28.27411 -21.969803,44.95331 -3.193436,16.47376 -1.982827,42.22402 2.917288,62.05225 5.091735,20.60359 13.586475,35.89591 27.314565,49.17195 8.04213,7.77731 15.58303,12.93487 26.5376,18.15025 13.56218,6.45684 29.74276,11.04302 47.7802,13.54267 3.29008,0.45595 6.72845,0.94786 7.64082,1.09315 l 1.65886,0.26416 -3.48375,4.34201 c -5.42992,6.76766 -9.56597,16.17997 -11.13776,25.3459 l -0.61291,3.57423 -3.92489,1.49763 c -8.79438,3.3557 -16.61523,4.85398 -25.25127,4.83749 -18.8556,-0.036 -32.29052,-7.9818 -44.32019,-26.21228 -9.74941,-14.77483 -21.112797,-23.36749 -34.737738,-26.26764 -4.316942,-0.91889 -11.055964,-0.66827 -13.882695,0.51629 -2.399016,1.00533 -3.716187,2.91148 -3.262088,4.72074 0.580796,2.31409 4.301118,5.94188 9.778004,9.5348 11.299819,7.41288 20.598528,18.86523 26.594857,32.75442 4.04467,9.36857 4.90549,11.07532 7.59978,15.06809 6.81813,10.10403 17.68098,18.10572 29.86213,21.99678 9.4576,3.02105 12.46896,3.42277 25.48836,3.40014 11.39905,-0.0198 14.63903,-0.31003 23.53771,-2.10837 l 1.69056,-0.34165 v 22.89313 22.89312 l -1.45347,2.78227 c -2.16255,4.13958 -5.10125,5.79684 -10.67299,6.01893 -3.94253,0.15715 -4.72262,10e-4 -10.50096,-2.09818 z"
     id="path3733"
     inkscape:connector-curvature="0"
     transform="scale(0.046875)" />
</svg>
