<?xml version="1.0" encoding="UTF-8" standalone="no"?>
<!-- Generator: Adobe Illustrator 19.0.0, SVG Export Plug-In . SVG Version: 6.00 Build 0)  -->

<svg
   xmlns:dc="http://purl.org/dc/elements/1.1/"
   xmlns:cc="http://creativecommons.org/ns#"
   xmlns:rdf="http://www.w3.org/1999/02/22-rdf-syntax-ns#"
   xmlns:svg="http://www.w3.org/2000/svg"
   xmlns="http://www.w3.org/2000/svg"
   xmlns:sodipodi="http://sodipodi.sourceforge.net/DTD/sodipodi-0.dtd"
   xmlns:inkscape="http://www.inkscape.org/namespaces/inkscape"
   version="1.1"
   id="Capa_1"
   x="0px"
   y="0px"
   viewBox="0 0 512.012 512.012"
   style="enable-background:new 0 0 512.012 512.012;"
   xml:space="preserve"
   sodipodi:docname="OriginalDesign.svg"
   inkscape:version="0.92.4 (5da689c313, 2019-01-14)"><metadata
   id="metadata260"><rdf:RDF><cc:Work
       rdf:about=""><dc:format>image/svg+xml</dc:format><dc:type
         rdf:resource="http://purl.org/dc/dcmitype/StillImage" /></cc:Work></rdf:RDF></metadata><defs
   id="defs258" /><sodipodi:namedview
   pagecolor="#ffffff"
   bordercolor="#666666"
   borderopacity="1"
   objecttolerance="10"
   gridtolerance="10"
   guidetolerance="10"
   inkscape:pageopacity="0"
   inkscape:pageshadow="2"
   inkscape:window-width="2736"
   inkscape:window-height="1699"
   id="namedview256"
   showgrid="false"
   inkscape:zoom="1.8437067"
   inkscape:cx="282.14974"
   inkscape:cy="314.72595"
   inkscape:window-x="-13"
   inkscape:window-y="-13"
   inkscape:window-maximized="1"
   inkscape:current-layer="Capa_1" />
<g
   id="g223">
	<g
   id="g221">
		<path
   d="M493.174,108.592l2.453-2.475c10.581-10.56,16.384-24.597,16.384-39.552c0-30.827-25.088-55.893-55.936-55.893    c-14.933,0-28.971,5.824-39.531,16.384l-29.419,29.419l-4.992,4.992L210.252,75.803L76.406,53.488    C70.668,52.4,65.164,56.39,64.161,62.15l-64,362.667c-0.491,2.795,0.149,5.675,1.792,8c1.643,2.325,4.139,3.904,6.955,4.373    l95.744,15.957l2.048,38.101c0.171,2.923,1.515,5.653,3.755,7.552c1.941,1.643,4.373,2.539,6.891,2.539    c0.405,0,0.789-0.021,1.173-0.064l164.907-18.325l109.483,18.24c0.597,0.107,1.195,0.149,1.771,0.149    c5.099,0,9.6-3.648,10.475-8.832l4.16-23.552l93.205-10.368c5.632-0.619,9.792-5.547,9.472-11.2L493.174,108.592z M394.678,79.11    l48.896,48.896L293.665,277.915c-3.477-8.789-9.259-19.264-19.477-29.461c-10.176-10.176-20.629-15.979-29.419-19.435    L394.678,79.11z M275.702,290.736l-58.368,14.613l14.613-58.368c6.891,2.005,17.088,6.443,27.179,16.555    C269.238,273.648,273.697,283.867,275.702,290.736z M358.774,84.827l-13.461,13.461l-49.408-8.213L358.774,84.827z     M127.393,478.832l-1.195-22.101l79.979,13.333L127.393,478.832z M385.996,478.385L23.03,417.905L83.318,76.251l243.456,40.576    L216.46,227.142c-0.128,0.128-0.149,0.341-0.256,0.469c-0.981,1.088-1.685,2.347-2.133,3.797c-0.085,0.256-0.32,0.427-0.384,0.683    l-21.333,85.333c-0.917,3.648,0.149,7.488,2.795,10.133c2.005,2.005,4.736,3.115,7.531,3.115c0.875,0,1.728-0.107,2.581-0.341    l85.333-21.333c0.256-0.064,0.427-0.299,0.661-0.384c1.344-0.448,2.56-1.131,3.605-2.027c0.192-0.171,0.491-0.192,0.683-0.384    l146.731-146.731L385.996,478.385z M413.174,447.067l55.381-313.899l4.373-4.373l17.195,309.717L413.174,447.067z M480.545,91.035    l-21.888,21.888l-48.896-48.896l21.888-21.909c6.528-6.549,15.211-10.133,24.469-10.133c19.051,0,34.56,15.509,34.56,34.603    C490.678,75.824,487.073,84.507,480.545,91.035z"
   id="path219" />
	</g>
</g>
<g
   id="g225">
</g>
<g
   id="g227">
</g>
<g
   id="g229">
</g>
<g
   id="g231">
</g>
<g
   id="g233">
</g>
<g
   id="g235">
</g>
<g
   id="g237">
</g>
<g
   id="g239">
</g>
<g
   id="g241">
</g>
<g
   id="g243">
</g>
<g
   id="g245">
</g>
<g
   id="g247">
</g>
<g
   id="g249">
</g>
<g
   id="g251">
</g>
<g
   id="g253">
</g>
<path
   style="fill:#ffffff;stroke-width:0.54238564"
   d="M 203.69347,447.79414 C 104.84765,431.2883 23.850725,417.66045 23.700303,417.51003 23.484565,417.29429 83.144227,77.241294 83.497347,76.673963 c 0.05076,-0.08155 54.675843,8.94827 121.389083,20.066262 l 121.29681,20.214535 -55.56796,55.59653 c -38.91011,38.93013 -55.81677,56.19672 -56.39798,57.59866 -0.45652,1.10118 -5.73143,21.60335 -11.72203,45.5604 -11.80136,47.19488 -11.52883,45.65875 -8.89695,50.15005 1.50723,2.57207 5.81423,5.06949 8.74274,5.06949 1.87489,0 84.97695,-20.57505 89.13771,-22.0694 2.09904,-0.75387 12.78651,-11.2101 76.34078,-74.68907 40.64502,-40.59686 73.90004,-73.61328 73.90004,-73.36982 0,0.4672 -55.10693,313.06079 -55.64102,315.62324 -0.22917,1.09948 -0.62035,1.47689 -1.48816,1.43574 -0.6475,-0.0307 -82.05112,-13.56059 -180.89694,-30.06644 z"
   id="path262"
   inkscape:connector-curvature="0" /><path
   style="fill:#ffffff;stroke-width:0.54238564"
   d="m 413.75441,445.0836 c 0.17708,-0.94393 12.63256,-71.47412 27.67884,-156.73377 l 27.35687,-155.01755 1.75005,-1.8056 c 0.96254,-0.99308 1.85364,-1.70202 1.98023,-1.57543 0.24182,0.24182 17.44276,307.99839 17.22788,308.23848 -0.0683,0.0763 -17.26726,2.04475 -38.21998,4.37438 l -38.09585,4.23571 z"
   id="path264"
   inkscape:connector-curvature="0" /><path
   style="fill:#ffffff;stroke-width:0.54238564"
   d="m 127.47285,474.79768 c -0.17356,-2.01361 -0.47176,-6.77304 -0.66267,-10.57652 -0.28413,-5.66066 -0.21226,-6.91741 0.39611,-6.92638 0.40877,-0.006 17.9504,2.8537 38.98141,6.35496 l 38.23818,6.36592 -37.42461,4.19133 c -20.58353,2.30523 -37.82696,4.20494 -38.31873,4.22156 -0.71548,0.0242 -0.95718,-0.70126 -1.20969,-3.63087 z"
   id="path266"
   inkscape:connector-curvature="0" /><path
   style="fill:#ffffff;stroke-width:0.54238564"
   d="m 291.31617,272.10481 c -8.20305,-16.96742 -22.51406,-31.53879 -39.30911,-40.02424 l -6.65739,-3.36355 74.59093,-74.59093 74.59093,-74.590926 24.27151,24.271506 24.27151,24.27151 -74.6193,74.61931 -74.6193,74.61929 z"
   id="path268"
   inkscape:connector-curvature="0" /><path
   style="fill:#ffffff;stroke-width:0.54238564"
   d="m 217.84318,304.2174 c 0.1347,-0.37289 3.39479,-13.31984 7.24464,-28.771 l 6.99973,-28.09302 1.35596,0.32007 c 2.97429,0.70208 13.59235,6.33263 17.65562,9.36241 5.36629,4.0014 12.75356,11.66508 16.07102,16.67235 3.81591,5.75962 8.68723,16.07338 7.94311,16.8175 -0.20609,0.2061 -56.56388,14.36967 -57.17785,14.36967 -0.18543,0 -0.22693,-0.30509 -0.0922,-0.67798 z"
   id="path270"
   inkscape:connector-curvature="0" /><path
   style="fill:#ffffff;stroke-width:0.54238564"
   d="M 434.12742,88.213556 409.99705,64.078617 421.65483,52.384252 c 13.05699,-13.09796 17.13491,-16.233072 24.01631,-18.463786 6.32284,-2.049651 14.47786,-2.06401 20.727,-0.0365 13.37044,4.338002 22.75042,16.254924 23.94826,30.425431 0.45914,5.431675 -0.89126,11.868237 -3.70625,17.665494 -2.10831,4.341906 -2.98164,5.360137 -15.0027,17.491937 -7.02024,7.084912 -12.90258,12.881662 -13.07187,12.881662 -0.16929,0 -11.16646,-10.86072 -24.43816,-24.134938 z"
   id="path272"
   inkscape:connector-curvature="0" /><path
   style="fill:#ffffff;stroke-width:0.54238564"
   d="m 320.4964,93.922642 c -19.41893,-3.27387 -21.3824,-3.695602 -18.7123,-4.019192 2.67741,-0.324476 54.44709,-4.674241 55.63151,-4.674241 0.26824,0 -2.31117,2.806846 -5.73203,6.237435 -5.31299,5.328099 -6.45825,6.228412 -7.85575,6.17555 -0.8998,-0.03404 -11.39894,-1.707835 -23.33143,-3.719552 z"
   id="path274"
   inkscape:connector-curvature="0" /><path
   style="fill:#252933;fill-opacity:1;stroke-width:0.54238564"
   d="m 113.93166,500.44782 c -2.56216,-0.91353 -4.47714,-2.64715 -5.8231,-5.27162 -0.87532,-1.70675 -1.18171,-4.87351 -2.12142,-21.92607 -0.60408,-10.96216 -1.19284,-20.02571 -1.30836,-20.14122 -0.11551,-0.11552 -21.9706,-3.83849 -48.566869,-8.27329 C 22.280118,439.19434 7.152539,436.46114 5.7491335,435.73625 3.203974,434.4216 0.75894064,430.98711 0.41426732,428.24245 0.23698978,426.83078 10.95957,364.88813 32.390094,243.52318 58.44284,95.981729 64.862858,60.518163 65.831857,58.794063 c 1.700889,-3.026328 4.987306,-5.023224 8.267036,-5.023224 1.436351,0 32.668447,5.010714 69.404667,11.134922 l 66.79312,11.134916 86.01584,-7.139725 86.01584,-7.139731 20.06827,-19.910467 C 424.045,20.372613 426.04568,18.74117 435.28457,15.032499 c 7.34594,-2.948802 12.17073,-3.838931 20.80824,-3.838931 11.22751,0 18.75637,2.045413 28.73516,7.806667 5.6493,3.261626 14.7986,12.245648 18.38452,18.052424 8.75226,14.172755 10.84846,31.9418 5.58736,47.362968 -2.53826,7.440055 -6.02164,13.241824 -12.04898,20.068263 l -3.83116,4.33909 9.47213,170.4315 c 9.37713,168.72231 9.46214,170.45366 8.47581,172.64094 -1.23879,2.74715 -3.94786,5.17799 -6.62913,5.94832 -1.12361,0.32281 -22.89,2.89571 -48.36974,5.71755 -25.47974,2.82184 -46.44594,5.24976 -46.59156,5.39538 -0.14562,0.14561 -1.2046,5.57481 -2.35329,12.06488 -1.14869,6.49007 -2.34577,12.57958 -2.66018,13.53226 -0.31442,0.95268 -1.52051,2.58936 -2.68021,3.63708 -4.19401,3.78903 -0.29736,4.17488 -62.43354,-6.18226 l -55.81069,-9.30278 -83.38995,9.26719 c -45.86447,5.09696 -83.51199,9.2562 -83.66114,9.24276 -0.14916,-0.0134 -1.20961,-0.35903 -2.35656,-0.76798 z m 53.15796,-25.78807 c 21.38272,-2.38777 38.97544,-4.43917 39.09493,-4.55866 0.11949,-0.11949 -0.47141,-0.36073 -1.31309,-0.5361 -3.51736,-0.73283 -76.99241,-12.80164 -77.93658,-12.80164 -0.97488,0 -1.01187,0.34798 -0.6775,6.37304 0.67602,12.18136 1.02115,15.86477 1.48652,15.86477 0.25742,0 17.96299,-1.95363 39.34572,-4.34141 z m 219.8286,0.13793 c 0.34833,-2.01361 12.94317,-73.42321 27.98854,-158.68801 15.04537,-85.2648 27.35521,-155.43557 27.35521,-155.93505 0,-0.49947 -30.20409,29.2493 -67.12022,66.1084 -76.19333,76.07564 -81.57492,81.3314 -84.21931,82.25027 -4.09894,1.4243 -86.9221,21.85346 -88.55228,21.8423 -2.43705,-0.0166 -5.86501,-1.69437 -7.54745,-3.69383 -2.24951,-2.67338 -2.76073,-4.88746 -2.04783,-8.86913 1.07466,-6.00216 21.13874,-85.64044 22.02384,-87.41694 0.46734,-0.93802 25.89456,-26.7741 56.50492,-57.4135 30.61037,-30.63942 55.48277,-55.88046 55.27201,-56.09122 C 325.89494,116.21027 83.519839,76.037884 83.201485,76.552993 82.728807,77.317806 22.781952,417.67645 23.069314,417.96381 c 0.310267,0.31027 359.763636,60.36078 361.779706,60.43915 1.35781,0.0528 1.47031,-0.14325 2.0692,-3.60528 z m 103.40745,-36.12432 c 0.0344,-0.044 -3.8009,-69.51884 -8.52292,-154.38863 -4.72202,-84.86979 -8.59433,-154.67161 -8.60514,-155.11515 -0.0118,-0.483 -0.99923,0.17312 -2.46197,1.63587 l -2.44232,2.44232 -27.66006,156.74073 c -15.21304,86.20739 -27.66008,156.8762 -27.66009,157.0418 -10e-6,0.24475 77.14321,-8.08957 77.3525,-8.35694 z m -243.32252,-140.46824 28.47525,-7.2222 -0.0975,-1.41672 c -0.30296,-4.40435 -7.86637,-17.3573 -14.18519,-24.29331 -3.84954,-4.22554 -10.48704,-9.55582 -15.88428,-12.75598 -4.75608,-2.82 -12.82303,-6.02251 -13.44161,-5.33621 -0.35469,0.39352 -14.69792,56.9764 -14.69792,57.98211 0,0.56723 2.02063,0.0959 29.83121,-6.95769 z M 419.48202,103.39937 394.8062,78.719075 319.81991,153.7039 c -41.24247,41.24166 -74.97839,75.1072 -74.96873,75.25676 0.01,0.14956 2.87753,1.6732 6.37303,3.38586 8.4506,4.14047 15.38589,9.17081 22.62703,16.41195 7.22301,7.22301 12.1776,14.05552 16.64324,22.95145 l 3.35321,6.67989 75.15508,-75.15507 75.15508,-75.15508 z m 51.59979,-2.30539 c 14.15333,-14.341094 16.49784,-17.561216 18.68731,-25.666442 1.14953,-4.255477 1.29465,-12.624766 0.29086,-16.775228 -2.86206,-11.834109 -12.29681,-21.773695 -24.20423,-25.499342 -5.35359,-1.675056 -14.18607,-1.672785 -19.52588,0.005 -7.77052,2.441549 -9.36874,3.642488 -23.59378,17.72892 l -13.28845,13.158965 24.4051,24.4225 c 13.4228,13.432357 24.67094,24.422477 24.99587,24.422477 0.32493,0 5.82987,-5.3086 12.2332,-11.79689 z M 352.47882,91.756214 c 3.56033,-3.56963 6.33131,-6.632264 6.15772,-6.805849 -0.17358,-0.173586 -14.36383,0.850086 -31.53388,2.274819 -17.17005,1.424733 -31.09246,2.717835 -30.93868,2.873554 0.38683,0.391727 45.57771,8.01865 47.93468,8.090001 1.74136,0.05272 2.46854,-0.50546 8.38016,-6.432525 z"
   id="path1327"
   inkscape:connector-curvature="0" /></svg>