<?xml version="1.0" encoding="UTF-8" standalone="no"?>
<svg
   xmlns:dc="http://purl.org/dc/elements/1.1/"
   xmlns:cc="http://creativecommons.org/ns#"
   xmlns:rdf="http://www.w3.org/1999/02/22-rdf-syntax-ns#"
   xmlns:svg="http://www.w3.org/2000/svg"
   xmlns="http://www.w3.org/2000/svg"
   xmlns:sodipodi="http://sodipodi.sourceforge.net/DTD/sodipodi-0.dtd"
   xmlns:inkscape="http://www.inkscape.org/namespaces/inkscape"
   id="_x31__x2C_5"
   enable-background="new 0 0 24 24"
   viewBox="0 0 24 24"
   version="1.1"
   sodipodi:docname="ProgrammingStandards.svg"
   inkscape:version="0.92.4 (5da689c313, 2019-01-14)">
  <metadata
     id="metadata312">
    <rdf:RDF>
      <cc:Work
         rdf:about="">
        <dc:format>image/svg+xml</dc:format>
        <dc:type
           rdf:resource="http://purl.org/dc/dcmitype/StillImage" />
      </cc:Work>
    </rdf:RDF>
  </metadata>
  <defs
     id="defs310" />
  <sodipodi:namedview
     pagecolor="#ffffff"
     bordercolor="#666666"
     borderopacity="1"
     objecttolerance="10"
     gridtolerance="10"
     guidetolerance="10"
     inkscape:pageopacity="0"
     inkscape:pageshadow="2"
     inkscape:window-width="2736"
     inkscape:window-height="1699"
     id="namedview308"
     showgrid="false"
     inkscape:zoom="58.999999"
     inkscape:cx="6.8227359"
     inkscape:cy="11.807735"
     inkscape:window-x="-13"
     inkscape:window-y="-13"
     inkscape:window-maximized="1"
     inkscape:current-layer="_x31__x2C_5" />
  <path
     d="m22.25 21h-20.5c-.965 0-1.75-.785-1.75-1.75v-13.5c0-.965.785-1.75 1.75-1.75h20.5c.965 0 1.75.785 1.75 1.75v13.5c0 .965-.785 1.75-1.75 1.75zm-20.5-15.5c-.138 0-.25.112-.25.25v13.5c0 .138.112.25.25.25h20.5c.138 0 .25-.112.25-.25v-13.5c0-.138-.112-.25-.25-.25z"
     id="path295" />
  <path
     d="m23.25 17.5h-22.5c-.414 0-.75-.336-.75-.75s.336-.75.75-.75h22.5c.414 0 .75.336.75.75s-.336.75-.75.75z"
     id="path297" />
  <path
     d="m15.25 24h-6.5c-.303 0-.577-.183-.693-.463s-.052-.603.163-.817c1.041-1.041 1.265-2.552 1.267-2.567.054-.411.432-.702.841-.646.411.054.7.431.646.841-.008.059-.147 1.066-.744 2.152h3.523c-.591-1.081-.738-2.088-.746-2.147-.057-.41.229-.789.64-.846.412-.055.788.229.846.638.007.045.232 1.469 1.184 2.488.195.136.323.361.323.617 0 .414-.336.75-.75.75z"
     id="path299" />
  <path
     d="m15.25 13.5c-.173 0-.346-.059-.488-.181-.314-.27-.351-.743-.081-1.058l1.081-1.261-1.082-1.262c-.27-.314-.233-.788.081-1.058.315-.27.788-.233 1.058.081l1.5 1.75c.241.281.241.695 0 .977l-1.5 1.75c-.148.173-.358.262-.569.262z"
     id="path301" />
  <path
     d="m8.75 13.5c-.211 0-.421-.089-.57-.262l-1.5-1.75c-.241-.281-.241-.695 0-.977l1.5-1.75c.269-.315.743-.351 1.058-.08.314.27.351.743.081 1.058l-1.081 1.261 1.082 1.262c.27.314.233.788-.081 1.058-.142.12-.316.18-.489.18z"
     id="path303" />
  <path
     d="m11.25 15c-.056 0-.112-.006-.169-.019-.404-.093-.655-.496-.563-.899l1.5-6.5c.093-.404.495-.651.899-.563.404.093.655.496.563.899l-1.5 6.5c-.079.348-.388.582-.73.582z"
     id="path305" />
  <path
     style="fill:#ffffff;stroke-width:0.76703107"
     d="m 32.678678,230.73502 c 0,-105.91527 0.05617,-110.38443 1.402701,-111.60302 1.298444,-1.17508 17.788785,-1.26855 221.863741,-1.25768 121.25357,0.006 220.84082,0.26533 221.30501,0.57527 2.58099,1.72338 2.60767,2.88223 2.60767,113.26667 V 341.06862 H 256.26824 32.678678 Z m 216.034892,86.87203 c 2.4602,-1.52103 4.19731,-3.36132 5.37329,-5.69245 1.08771,-2.1562 7.79489,-29.69855 17.9301,-73.62815 17.94639,-77.78606 17.6688,-76.07658 13.34923,-82.20917 -6.32869,-8.98499 -20.36426,-9.08405 -26.60764,-0.18778 -1.82358,2.59843 -4.36282,12.76392 -18.6005,74.46424 -9.06875,39.30026 -16.48671,72.436 -16.48435,73.63498 0.0124,6.31783 5.27189,13.83642 10.86907,15.53763 4.42281,1.34428 10.14582,0.56915 14.1708,-1.9193 z m -55.89252,-30.65481 c 8.40239,-3.50988 12.39201,-13.33346 8.70828,-21.44221 -0.76811,-1.69078 -6.76732,-9.31915 -13.33158,-16.95192 l -11.93501,-13.87776 11.80297,-13.72933 c 12.6269,-14.68772 14.89387,-18.19786 14.89387,-23.06141 0,-9.76545 -6.88272,-16.71571 -16.49117,-16.65302 -5.34259,0.0349 -8.0503,1.25353 -12.00651,5.4038 -6.9516,7.29258 -33.15326,38.51112 -34.46899,41.06883 -2.06099,4.00645 -1.94662,10.22561 0.26188,14.24001 0.9492,1.72537 9.40091,12.09613 18.78157,23.04614 18.52124,21.61974 20.3194,23.14635 27.26493,23.1475 2.01741,3.4e-4 4.95131,-0.53545 6.51976,-1.19063 z m 139.78508,-0.53459 c 2.63176,-1.33137 7.33157,-6.28384 20.56316,-21.66862 9.43343,-10.96855 17.85788,-21.32008 18.72102,-23.00341 1.87016,-3.64731 2.05356,-9.55896 0.41666,-13.43057 -1.75893,-4.16022 -35.37809,-42.98659 -39.18525,-45.25457 -7.26693,-4.32903 -17.37703,-1.56232 -21.79584,5.96461 -2.57738,4.39026 -2.90575,11.25715 -0.73311,15.33036 0.7343,1.37664 6.68646,8.75661 13.22704,16.39995 10.46401,12.22829 11.76632,14.04608 10.84579,15.13874 -0.57538,0.68297 -5.17633,6.07406 -10.22433,11.9802 -12.99203,15.20064 -13.89913,16.4478 -14.90183,20.48848 -3.26331,13.15039 10.87941,24.22022 23.06669,18.05483 z"
     id="path314"
     inkscape:connector-curvature="0"
     transform="scale(0.046875)" />
  <path
     style="fill:#ffffff;stroke-width:0.76703107"
     d="m 33.948105,414.06793 c -1.110443,-1.22702 -1.269427,-3.82073 -1.269427,-20.70984 V 374.05096 H 256.26824 479.8578 v 18.45917 c 0,18.10891 -0.31892,20.84524 -2.60767,22.37348 -0.46419,0.30995 -100.11141,0.56882 -221.43828,0.57528 -212.742269,0.0113 -220.639503,-0.0382 -221.863745,-1.39096 z"
     id="path316"
     inkscape:connector-curvature="0"
     transform="scale(0.046875)" />
  <path
     style="fill:#ffffff;stroke-width:0.76703107"
     d="m 219.06723,479.57014 c 0,-0.18211 1.52745,-3.46943 3.39434,-7.30515 1.86689,-3.83573 4.65674,-10.76259 6.19967,-15.39303 l 2.80532,-8.41899 h 24.35007 24.35006 l 2.37813,7.19899 c 1.30797,3.95945 4.08997,11.03531 6.18222,15.72414 l 3.80409,8.52514 h -36.73195 c -20.20257,0 -36.73195,-0.14899 -36.73195,-0.3311 z"
     id="path318"
     inkscape:connector-curvature="0"
     transform="scale(0.046875)" />
  <path
     style="fill:#252933;fill-opacity:1;stroke-width:0.01694915"
     d="M 8.6087747,23.97752 C 8.5151611,23.959098 8.3697679,23.892599 8.289405,23.831452 8.0607023,23.657432 7.9571522,23.31423 8.0462827,23.025659 c 0.038881,-0.125882 0.096098,-0.211271 0.2529251,-0.377461 0.2956747,-0.313327 0.533901,-0.669143 0.7465901,-1.11511 0.098093,-0.205682 0.2210058,-0.499382 0.2210058,-0.528094 0,-0.0048 -1.748517,-0.01075 -3.8855933,-0.01326 l -3.8855933,-0.0046 -0.1690935,-0.04661 C 0.69922652,20.767669 0.2442938,20.315481 0.06040675,19.682096 L 0.02104077,19.546503 0.01592137,12.580401 C 0.01209229,7.3700829 0.0157425,5.5822592 0.03040364,5.4871804 0.14544168,4.7411484 0.74130083,4.1453017 1.4871425,4.030472 1.5824832,4.0157933 4.2306463,4.012173 12.080363,4.0159897 l 10.466102,0.00509 0.13157,0.037497 c 0.633789,0.1806278 1.088522,0.6385671 1.263664,1.2725743 l 0.04544,0.1645053 0.005,6.8898307 c 0.0036,4.960739 -2.88e-4,6.937286 -0.01382,7.059322 -0.08839,0.797226 -0.722202,1.434613 -1.52461,1.533202 -0.09563,0.01175 -1.413485,0.01764 -3.943638,0.01764 h -3.800013 l 0.06673,0.173729 c 0.09735,0.253454 0.317556,0.688248 0.457108,0.902543 0.153657,0.235955 0.330619,0.455998 0.497523,0.618644 0.151165,0.14731 0.221847,0.273356 0.250605,0.446911 0.0613,0.369917 -0.192518,0.744462 -0.563802,0.831975 -0.0956,0.02253 -0.516933,0.0255 -3.422582,0.02409 -1.822457,-8.82e-4 -3.3465365,-0.0081 -3.3868423,-0.01603 z m 5.1463433,-1.486102 c -0.0033,-0.007 -0.06046,-0.123305 -0.126972,-0.258475 -0.148451,-0.301678 -0.320302,-0.733076 -0.406713,-1.020974 l -0.0648,-0.21589 -1.162958,-2.03e-4 -1.162958,-2.21e-4 -0.09651,0.297748 c -0.109776,0.338676 -0.274967,0.745524 -0.409574,1.00874 -0.05045,0.09865 -0.09173,0.184458 -0.09173,0.190678 0,0.0062 0.793856,0.01131 1.764125,0.01131 0.970268,0 1.761408,-0.0057 1.758088,-0.01271 z m 8.612176,-3.016975 c 0.03196,-0.0163 0.07391,-0.05116 0.09322,-0.07747 0.03436,-0.04682 0.0352,-0.06764 0.03976,-0.978814 l 0.0047,-0.930973 H 11.99548 1.4860289 l 0.00479,0.919491 c 0.00453,0.868669 0.00657,0.922433 0.037001,0.9727 0.017714,0.02926 0.059663,0.06913 0.09322,0.08859 l 0.061013,0.03538 10.3135591,3.63e-4 c 9.785899,3.44e-4 10.316533,-0.0012 10.371677,-0.02927 z m 0.136798,-8.624785 V 5.686711 l -0.0355,-0.063156 C 22.449072,5.588819 22.409022,5.545831 22.379612,5.528027 22.327142,5.496271 22.130157,5.495574 12.020506,5.491363 L 1.7148868,5.487073 1.6391498,5.525264 C 1.5837868,5.553181 1.5531538,5.583799 1.5252772,5.6390799 l -0.038136,0.075625 v 5.1489511 5.148951 H 11.995617 22.504092 Z"
     id="path1355"
     inkscape:connector-curvature="0" />
  <path
     style="fill:#252933;fill-opacity:1;stroke-width:0.01694915"
     d="M 15.022687,13.454361 C 14.681218,13.34203 14.45626,12.97392 14.519621,12.631169 c 0.041,-0.221794 0.06557,-0.25396 1.17269,-1.5356 l 0.08207,-0.095 -0.573201,-0.669144 C 14.825923,9.8933626 14.612161,9.6299624 14.582187,9.5686974 c -0.02518,-0.051471 -0.05418,-0.144258 -0.06445,-0.206194 -0.08047,-0.4856404 0.366054,-0.9292213 0.848586,-0.8429879 0.189206,0.033813 0.270066,0.08199 0.448481,0.2672072 0.187858,0.1950201 1.505942,1.7307143 1.563825,1.8220053 0.13848,0.218405 0.143306,0.530432 0.01172,0.757964 -0.05744,0.09932 -1.529457,1.814545 -1.662217,1.936848 -0.136153,0.125427 -0.249269,0.169833 -0.452862,0.17778 -0.117596,0.0046 -0.175462,-0.0016 -0.252591,-0.02696 z"
     id="path1357"
     inkscape:connector-curvature="0" />
  <path
     style="fill:#252933;fill-opacity:1;stroke-width:0.01694915"
     d="m 11.076297,14.969251 c -0.05351,-0.01297 -0.129219,-0.03987 -0.168248,-0.05978 -0.09868,-0.05035 -0.24255,-0.190804 -0.302179,-0.295025 -0.0666,-0.116413 -0.107848,-0.296095 -0.09535,-0.415399 0.0099,-0.09432 1.432233,-6.2788678 1.512441,-6.5762714 0.05453,-0.2021939 0.107341,-0.3002296 0.218217,-0.4050913 0.28874,-0.2730783 0.727669,-0.2739677 1.015174,-0.00206 0.101354,0.095856 0.185783,0.2395789 0.213565,0.3635516 0.01416,0.063182 0.01232,0.1289841 -0.008,0.2873484 -0.02453,0.1908394 -1.327851,5.8988537 -1.47688,6.4681127 -0.06711,0.256347 -0.115445,0.347636 -0.2464,0.465377 -0.09655,0.08681 -0.220895,0.149645 -0.349756,0.176749 -0.113879,0.02395 -0.190316,0.02212 -0.312554,-0.0075 z"
     id="path1359"
     inkscape:connector-curvature="0" />
  <path
     style="fill:#252933;fill-opacity:1;stroke-width:0.01694915"
     d="M 8.5464647,13.464408 C 8.4469111,13.431548 8.3694708,13.38892 8.2850411,13.320502 8.2145425,13.263373 6.7498947,11.568834 6.6405643,11.417908 6.555725,11.300791 6.5165409,11.174876 6.5144355,11.012604 6.512052,10.828895 6.5524427,10.701107 6.6562351,10.56398 6.8214276,10.345732 8.265922,8.680097 8.3198825,8.645641 8.56752,8.4875146 8.8087037,8.4654902 9.0554796,8.578468 9.1843235,8.6374547 9.2612152,8.700084 9.3459625,8.8150702 9.5243593,9.0571209 9.5330676,9.42571 9.3658803,9.6581149 9.3362739,9.6992705 9.0692429,10.016392 8.7724779,10.36283 8.475713,10.709268 8.2329054,10.995889 8.2329054,10.999767 c 0,0.0039 0.2517624,0.300089 0.5594719,0.658249 0.677502,0.78858 0.6862908,0.802551 0.6862908,1.090997 0,0.175599 -0.0034,0.194488 -0.054262,0.301871 -0.075169,0.158689 -0.2009938,0.28679 -0.357826,0.3643 -0.1156278,0.05715 -0.1404639,0.0629 -0.2894007,0.06706 -0.1015037,0.0028 -0.1884752,-0.0039 -0.2307149,-0.01783 z"
     id="path1361"
     inkscape:connector-curvature="0" />
</svg>
