<?xml version="1.0" encoding="UTF-8" standalone="no"?>
<!-- Generator: Adobe Illustrator 19.0.0, SVG Export Plug-In . SVG Version: 6.00 Build 0)  -->

<svg
   xmlns:dc="http://purl.org/dc/elements/1.1/"
   xmlns:cc="http://creativecommons.org/ns#"
   xmlns:rdf="http://www.w3.org/1999/02/22-rdf-syntax-ns#"
   xmlns:svg="http://www.w3.org/2000/svg"
   xmlns="http://www.w3.org/2000/svg"
   xmlns:sodipodi="http://sodipodi.sourceforge.net/DTD/sodipodi-0.dtd"
   xmlns:inkscape="http://www.inkscape.org/namespaces/inkscape"
   version="1.1"
   id="Capa_1"
   x="0px"
   y="0px"
   viewBox="0 0 512 512"
   style="enable-background:new 0 0 512 512;"
   xml:space="preserve"
   sodipodi:docname="UserExperience.svg"
   inkscape:version="0.92.4 (5da689c313, 2019-01-14)"><metadata
   id="metadata404"><rdf:RDF><cc:Work
       rdf:about=""><dc:format>image/svg+xml</dc:format><dc:type
         rdf:resource="http://purl.org/dc/dcmitype/StillImage" /></cc:Work></rdf:RDF></metadata><defs
   id="defs402" /><sodipodi:namedview
   pagecolor="#ffffff"
   bordercolor="#666666"
   borderopacity="1"
   objecttolerance="10"
   gridtolerance="10"
   guidetolerance="10"
   inkscape:pageopacity="0"
   inkscape:pageshadow="2"
   inkscape:window-width="2736"
   inkscape:window-height="1699"
   id="namedview400"
   showgrid="false"
   inkscape:zoom="1.3037281"
   inkscape:cx="41.466109"
   inkscape:cy="173.11548"
   inkscape:window-x="-13"
   inkscape:window-y="-13"
   inkscape:window-maximized="1"
   inkscape:current-layer="Capa_1" />
<g
   id="g367">
	<g
   id="g365">
		<path
   d="M256,0C114.848,0,0,114.848,0,256s114.848,256,256,256s256-114.848,256-256S397.152,0,256,0z M256,480    c-57.664,0-110.144-22.08-149.888-58.016c3.072-1.152,6.112-2.4,9.344-3.072l70.016-14.048    C207.808,400.448,224,380.672,224,357.76v-32c0-8.448-6.56-15.424-14.976-15.968c-38.944-2.496-58.08-7.424-64.928-10.592    c1.92-47.584,30.016-147.84,29.952-147.84C186.656,116.704,225.12,97.28,255.68,96c14.048,0.256,25.92,3.424,38.368,10.176    c6.56,3.584,14.144,4.864,20.864,6.016c3.808,0.64,10.176,1.728,11.584,2.656c4.48,4.8,7.904,10.24,8.192,32.512    c0.032,1.472,0.256,2.912,0.672,4.32c0.32,1.056,29.856,101.472,32.448,146.432c-7.232,2.944-26.272,7.904-64.96,10.688    c-8.384,0.64-14.848,7.616-14.848,16v32.96c0,22.88,16.192,42.656,38.432,47.04l69.952,14.048c3.328,0.704,6.4,1.952,9.504,3.104    C366.144,457.92,313.664,480,256,480z M429.28,397.76c-8.192-4.48-16.896-8.224-26.432-10.24l-70.144-14.08    C325.344,372,320,365.376,320,357.76v-18.24c69.92-6.656,80-20.96,80-35.52c0-43.04-28.608-142.976-33.312-159.232    c-0.608-25.12-5.184-39.232-16.672-51.616c-8.128-8.8-20.096-10.848-29.728-12.48c-3.776-0.672-8.992-1.536-10.912-2.592    c-17.056-9.216-33.92-13.696-54.048-14.08c-42.144,1.728-93.952,28.544-111.712,77.568C142.336,146.144,112,254.368,112,304    c0,20.704,23.392,31.616,80,36.608v17.184c0,7.616-5.344,14.208-12.736,15.68l-70.24,14.112    c-9.408,1.984-18.08,5.728-26.272,10.208C51.072,359.104,32,309.76,32,256C32,132.48,132.512,32,256,32s224,100.48,224,224    C480,309.76,460.928,359.104,429.28,397.76z"
   id="path363" />
	</g>
</g>
<g
   id="g369">
</g>
<g
   id="g371">
</g>
<g
   id="g373">
</g>
<g
   id="g375">
</g>
<g
   id="g377">
</g>
<g
   id="g379">
</g>
<g
   id="g381">
</g>
<g
   id="g383">
</g>
<g
   id="g385">
</g>
<g
   id="g387">
</g>
<g
   id="g389">
</g>
<g
   id="g391">
</g>
<g
   id="g393">
</g>
<g
   id="g395">
</g>
<g
   id="g397">
</g>
<path
   style="fill:#ffffff;stroke-width:0.76703107"
   d="m 234.91135,478.69249 c -35.98976,-3.43149 -71.74251,-16.28662 -102.24673,-36.76347 -10.44281,-7.01004 -25.08043,-18.46455 -25.08043,-19.62642 0,-1.1693 8.17137,-3.08309 43.72077,-10.23972 20.67149,-4.16148 39.07883,-8.10263 40.90521,-8.75809 13.25306,-4.75642 23.95895,-15.25984 28.88,-28.33386 2.88799,-7.67268 3.60151,-15.25594 3.33048,-35.39609 l -0.24774,-18.40874 -2.12972,-3.62301 c -3.7627,-6.40098 -6.35346,-7.35297 -24.6702,-9.06516 -24.04624,-2.24776 -38.29008,-4.60511 -48.9444,-8.10028 l -3.64339,-1.19522 v -3.74418 c 0,-10.00694 5.47102,-43.33822 11.94025,-72.74393 5.4711,-24.86874 16.96525,-69.45571 19.39737,-75.24432 10.83927,-25.79824 41.06169,-46.56818 73.43921,-50.470076 12.33326,-1.486312 26.62796,1.140447 39.42501,7.244636 10.14317,4.83829 13.8792,6.0399 25.91912,8.33627 6.33107,1.20752 11.08194,2.51669 11.94007,3.29025 4.02198,3.62561 6.40964,11.89869 7.09621,24.5879 0.37621,6.95313 1.32278,11.40041 6.46811,30.38902 11.22413,41.42226 18.64802,72.68477 22.87817,96.34159 2.59496,14.51211 4.32971,28.46838 3.73217,30.02557 -1.14721,2.98958 -24.49153,7.44999 -54.90739,10.49119 -13.19035,1.31888 -14.27456,1.5477 -17.2582,3.64242 -1.75101,1.22933 -4.04656,3.77305 -5.10123,5.65271 l -1.91758,3.41759 0.007,23.01093 0.007,23.01093 2.15819,6.13625 c 5.83059,16.5778 17.28779,27.40066 33.64085,31.77828 3.08356,0.82545 20.62111,4.47314 38.97232,8.10597 31.02269,6.1413 40.17719,8.23653 41.60328,9.52197 0.31191,0.28115 -1.93165,2.58973 -4.9857,5.13017 -35.22054,29.29741 -75.89963,46.60607 -120.5558,51.29563 -11.85567,1.24502 -32.40237,1.38738 -43.77245,0.30329 z"
   id="path406"
   inkscape:connector-curvature="0" /><path
   style="fill:#ffffff;stroke-width:0.76703107"
   d="M 76.758278,389.20261 C 34.959276,332.77916 21.968593,262.19801 40.949796,194.6475 45.631819,177.98506 55.346121,155.75213 64.595396,140.53028 95.441932,89.765046 145.47012,52.9219 202.54029,38.941063 222.44205,34.065604 233.0203,32.86303 256.0047,32.86303 c 22.98441,0 33.56265,1.202574 53.46442,6.078033 90.1892,22.094213 157.71584,98.707127 168.63993,191.331847 1.41513,11.99884 1.60736,37.3624 0.36623,48.32296 -4.67125,41.25243 -18.81086,77.48231 -43.17531,110.62797 l -6.04915,8.22931 -5.50952,-2.77703 c -9.41087,-4.7435 -15.11515,-6.23935 -53.83248,-14.11667 -20.67149,-4.20576 -38.6449,-7.99218 -39.94091,-8.41427 -1.29602,-0.42209 -3.43579,-1.88273 -4.75507,-3.24585 -4.05403,-4.18876 -4.77752,-6.99438 -4.77752,-18.52666 v -10.34479 l 2.49285,-0.37705 c 1.37106,-0.20737 6.97998,-0.93446 12.46425,-1.61576 38.28788,-4.75642 59.36466,-13.51403 63.66203,-26.4522 4.68595,-14.10806 -5.63211,-71.1971 -26.78742,-148.21277 -4.16687,-15.16944 -5.13004,-19.82658 -5.79017,-27.99663 -1.41075,-17.46006 -5.36619,-29.04807 -13.28666,-38.92521 -7.41544,-9.247353 -13.21535,-12.213493 -30.83731,-15.770552 -8.09303,-1.633609 -12.53352,-3.007579 -18.02523,-5.577336 -33.64818,-15.745147 -66.71322,-14.762955 -102.37423,3.041011 -19.48678,9.728891 -36.06042,24.097167 -47.44362,41.130557 -8.46839,12.67178 -11.26151,20.53981 -20.75287,58.45934 -13.31573,53.19855 -20.69404,93.76804 -21.69205,119.27334 -0.55715,14.23823 0.49775,17.64046 7.4715,24.09691 9.8207,9.09223 26.86919,14.45743 58.03939,18.2651 l 13.99831,1.71001 v 9.82041 c 0,10.96482 -0.76785,13.85935 -4.77485,17.99953 -1.3178,1.3616 -3.97533,2.98226 -5.90561,3.60146 -1.93029,0.6192 -19.38716,4.28549 -38.79304,8.14731 -37.56872,7.47627 -44.167435,9.18447 -53.408809,13.82582 l -5.85288,2.93952 z"
   id="path408"
   inkscape:connector-curvature="0" /><path
   style="fill:#252933;fill-opacity:1;stroke-width:0.76703107"
   d="M 237.67266,511.02567 C 126.80193,502.19485 34.908511,424.91384 8.055797,317.92128 2.1714038,294.47537 0.28482997,276.50883 0.88358601,249.61765 1.3344157,229.3701 2.6948912,217.40996 6.4628258,200.56974 21.725705,132.35462 64.967492,72.625268 125.30261,36.417823 156.49868,17.696883 192.21018,5.8239929 230.00235,1.6086327 c 10.8989,-1.21566918 41.43609,-1.22968959 51.7746,-0.023771 12.70216,1.4816231 26.25769,3.9304803 37.12973,6.7076255 C 410.16876,31.60441 481.6065,103.59697 504.17826,195.00297 c 9.8215,39.77285 9.82405,81.9806 0.008,121.95995 -16.18476,65.91266 -58.33682,122.8661 -117.14348,158.27712 -31.38498,18.89878 -63.71833,29.91446 -101.81386,34.68705 -10.88379,1.36351 -36.73274,1.96065 -47.55593,1.09858 z m 49.47351,-32.90787 c 43.36716,-6.59256 81.97394,-24.05633 113.87159,-51.5098 l 5.64801,-4.86109 -4.15004,-1.43109 c -2.28254,-0.78711 -21.06309,-4.83668 -41.73458,-8.99906 -20.67149,-4.16238 -39.53326,-8.29818 -41.91504,-9.19067 -6.25134,-2.34246 -12.68038,-6.76184 -17.61782,-12.11065 -5.0974,-5.52211 -7.74696,-10.02469 -10.49903,-17.84178 -1.97364,-5.60598 -2.03237,-6.30822 -2.30228,-27.52833 -0.30832,-24.24035 -0.0136,-26.18252 4.68668,-30.88279 3.49243,-3.49243 5.91541,-4.23317 17.02344,-5.20435 22.18521,-1.93964 41.77734,-5.09583 52.82662,-8.51008 l 5.27069,-1.62866 -0.51857,-5.50136 c -2.10841,-22.36696 -10.26132,-61.10584 -22.31544,-106.03264 -9.52987,-35.51871 -10.17998,-38.41636 -11.02256,-49.12929 -0.8821,-11.21524 -2.65026,-17.20957 -6.30377,-21.37069 -2.07173,-2.35958 -2.90642,-2.66538 -11.61859,-4.2567 -11.76762,-2.1494 -17.80517,-3.98393 -25.11064,-7.62996 -16.2953,-8.132687 -32.66885,-10.424998 -49.68899,-6.956514 -28.89583,5.888594 -54.15949,24.158244 -65.01451,47.015844 -5.05308,10.64036 -20.1573,72.00377 -27.13975,110.25977 -2.88402,15.80119 -5.42672,34.83854 -5.42672,40.63017 v 4.40119 l 5.74434,1.70531 c 11.68692,3.46946 25.68918,5.67072 51.25507,8.05767 9.72363,0.90785 12.65418,1.45749 14.78177,2.7724 3.41701,2.11184 6.08689,5.6806 7.14342,9.54848 1.26124,4.6173 1.04331,36.94713 -0.2999,44.48698 -2.77322,15.56709 -14.83768,30.23301 -29.35405,35.68366 -2.41963,0.90853 -20.62204,4.88552 -40.44979,8.83774 -33.17838,6.61338 -47.2413,9.90542 -47.12827,11.03246 0.0707,0.70503 9.40582,8.41136 17.34864,14.32165 32.56235,24.22982 71.84032,39.23145 113.22342,43.24399 11.39859,1.10521 39.30215,0.32404 50.78665,-1.42181 z M 88.150283,395.5436 c 9.452515,-4.76021 17.942647,-6.98495 55.561067,-14.55914 20.24962,-4.07711 38.24591,-8.08475 39.99175,-8.90587 3.43647,-1.61626 6.77241,-5.77835 7.96539,-9.93803 0.41213,-1.43702 0.74934,-6.94482 0.74934,-12.23955 v -9.62676 l -9.77965,-1.00501 c -40.03526,-4.11427 -62.27815,-12.69608 -68.51698,-26.43539 -5.36045,-11.80492 3.29093,-67.80633 21.64153,-140.08827 6.58158,-25.92445 8.75921,-33.12848 12.18146,-40.29882 8.65032,-18.12417 25.07449,-36.060065 43.74303,-47.76924 7.26475,-4.556556 21.49893,-11.225414 29.57184,-13.85471 14.14102,-4.605639 21.73726,-5.847589 35.58938,-5.818701 17.70965,0.03693 29.36156,2.669746 46.10651,10.418001 6.41129,2.966645 10.48088,4.234969 19.17578,5.976306 12.12765,2.42882 17.52909,4.291278 22.6364,7.805201 6.7482,4.642878 14.13526,15.504903 17.43126,25.631123 1.81415,5.57359 2.7457,11.10865 3.57951,21.26875 0.59797,7.28645 1.7673,12.75318 6.15248,28.76366 17.34745,63.33619 27.60479,114.47794 27.57835,137.50198 -0.006,5.22509 -0.36588,7.29408 -1.80699,10.38885 -6.09381,13.08633 -28.12866,20.88542 -73.59942,26.05003 l -4.46352,0.50697 0.24485,11.63539 c 0.2819,13.39603 1.19418,16.17809 6.54472,19.95852 2.76717,1.95516 7.06336,2.98687 40.54555,9.73695 39.9085,8.04562 46.19553,9.66712 56.09667,14.46801 l 6.29617,3.0529 3.74643,-4.75096 c 20.63059,-26.16228 36.0294,-59.67024 42.72019,-92.95953 3.44096,-17.12013 4.4369,-29.57275 3.98746,-49.85702 -0.81552,-36.80636 -8.22889,-65.89213 -25.07237,-98.36933 C 444.62456,132.70921 432.57674,116.17237 416.41678,99.615834 379.76407,62.063665 334.16884,39.574298 281.39343,33.016997 271.04082,31.730694 241.19985,31.724248 230.76938,33.006061 190.15739,37.996918 152.90372,52.923034 121.08394,76.952819 68.453895,116.69817 36.332554,176.40108 32.176617,242.20203 c -3.014219,47.7241 9.45358,94.9878 35.904211,136.10788 3.095854,4.81281 14.048568,19.8841 14.478941,19.92351 0.115998,0.0106 2.63173,-1.1998 5.590514,-2.68982 z"
   id="path1215"
   inkscape:connector-curvature="0" /></svg>